<svg t="1653742100311" class="icon" viewBox="0 0 1024 1024" version="1.1" xmlns="http://www.w3.org/2000/svg" p-id="39285" width="32" height="32"><path d="M928.302963 336.958358c-22.627347-53.497425-55.014988-101.537558-96.261391-142.78396-41.246403-41.247426-89.285512-73.634044-142.782937-96.261391-55.403844-23.433712-114.238834-35.31532-174.871773-35.31532-60.631916 0-119.466905 11.881608-174.87075 35.31532-53.497425 22.627347-101.537558 55.014988-142.78396 96.261391-41.247426 41.246403-73.634044 89.285512-96.261391 142.78396-23.433712 55.403844-35.31532 114.237811-35.31532 174.87075 0 60.632939 11.881608 119.467929 35.31532 174.871773 22.627347 53.497425 55.014988 101.537558 96.261391 142.782937 41.246403 41.247426 89.285512 73.634044 142.78396 96.261391 55.403844 23.432689 114.237811 35.31532 174.87075 35.31532 60.632939 0 119.467929-11.881608 174.871773-35.31532 53.497425-22.627347 101.537558-55.014988 142.782937-96.261391 41.247426-41.246403 73.634044-89.285512 96.261391-142.782937 23.432689-55.403844 35.31532-114.238834 35.31532-174.871773C963.618283 451.197192 951.736675 392.362202 928.302963 336.958358zM514.386862 899.662157c-213.851553 0-387.833049-173.981497-387.833049-387.833049s173.981497-387.833049 387.833049-387.833049 387.833049 173.981497 387.833049 387.833049S728.238414 899.662157 514.386862 899.662157z" p-id="39286"></path><path d="M709.446419 311.651996c-11.222599-11.222599-28.90533-11.736299-39.494503-1.14815L511.316943 469.139843 352.680946 310.50487c-10.589173-10.589173-28.27088-10.075473-39.493479 1.14815-11.223622 11.222599-11.736299 28.906353-1.14815 39.494503l158.634973 158.634973L312.040341 668.416446c-10.589173 10.591219-10.075473 28.272927 1.147126 39.496549 11.223622 11.222599 28.90533 11.736299 39.495526 1.147126l158.63395-158.63395 158.63395 158.63395c10.591219 10.589173 28.272927 10.075473 39.496549-1.147126 11.222599-11.223622 11.736299-28.90533 1.147126-39.496549L551.959595 509.782495l158.634973-158.634973C721.182718 340.558349 720.670042 322.875618 709.446419 311.651996z" p-id="39287"></path></svg>