<svg t="1636775412995" class="icon" viewBox="0 0 1024 1024" version="1.1" xmlns="http://www.w3.org/2000/svg" p-id="17761" width="200" height="200"><path d="M535.26 224.812l325.658 252.024L535.26 728.86c-15.892 12.302-16.586 32.824-1.606 45.847 15.002 13.019 40.062 13.601 55.932 1.298L945.701 500.42c7.925-6.14 12.407-14.665 12.407-23.586 0-8.925-4.483-17.438-12.407-23.573L589.587 177.668c-15.87-12.294-40.93-11.711-55.932 1.306-14.98 13.01-14.27 33.536 1.606 45.838z m0 0M75.608 224.812l325.655 252.024L75.608 728.86c-15.892 12.302-16.586 32.824-1.606 45.847 15.002 13.019 40.062 13.601 55.932 1.298L486.048 500.42c7.923-6.14 12.408-14.665 12.408-23.586 0-8.925-4.485-17.438-12.408-23.573L129.934 177.668c-15.87-12.294-40.93-11.711-55.932 1.306-14.98 13.01-14.265 33.536 1.606 45.838z m0 0" p-id="17762"></path></svg>