<svg t="1636774741668" class="icon" viewBox="0 0 1024 1024" version="1.1" xmlns="http://www.w3.org/2000/svg" p-id="9349" width="200" height="200"><path d="M293.172603 530.235616c25.249315 0 50.49863-5.610959 74.345205-18.235616 16.832877-8.416438 23.846575-29.457534 15.430137-47.693151-8.416438-16.832877-29.457534-23.846575-47.69315-15.430137-12.624658 7.013699-26.652055 9.819178-42.082192 9.819178-50.49863 0-91.178082-40.679452-91.178082-91.178082s40.679452-91.178082 91.178082-91.178082c5.610959 0 12.624658 0 18.235616 1.40274 8.416438 1.40274 16.832877 0 23.846576-4.208219-5.610959 16.832877-8.416438 35.068493-8.416439 54.706849 0 103.80274 84.164384 186.564384 186.564384 186.564383S701.369863 432.043836 701.369863 328.241096c0-21.041096-4.208219-40.679452-9.819178-60.317808 8.416438 8.416438 19.638356 11.221918 32.263014 9.819178 5.610959-1.40274 12.624658-1.40274 18.235616-1.40274 50.49863 0 91.178082 40.679452 91.178082 91.178082s-40.679452 91.178082-91.178082 91.178082c-15.430137 0-29.457534-2.805479-42.082192-9.819178-16.832877-8.416438-37.873973-1.40274-47.69315 15.430137-8.416438 16.832877-1.40274 37.873973 15.430137 47.693151 22.443836 11.221918 47.693151 18.235616 74.345205 18.235616 89.775342 0 161.315068-72.942466 161.315069-161.315068s-72.942466-161.315068-161.315069-161.315069c-11.221918 0-22.443836 1.40274-32.263014 2.80548-16.832877 2.805479-28.054795 18.235616-28.054794 35.068493-30.860274-60.317808-93.983562-102.4-166.926028-102.4-68.734247 0-129.052055 37.873973-161.315068 93.983562-2.805479-12.624658-12.624658-22.443836-26.652055-25.249315-11.221918-2.805479-21.041096-2.805479-32.263014-2.80548-89.775342 0-161.315068 72.942466-161.315068 161.315069s70.136986 159.912329 159.912329 159.912328z m220.230137-318.421917c64.526027 0 116.427397 51.90137 116.427397 116.427397s-51.90137 116.427397-116.427397 116.427397-116.427397-51.90137-116.427398-116.427397 51.90137-116.427397 116.427398-116.427397zM740.646575 533.041096c-11.221918 0-22.443836 0-33.665753 1.40274-19.638356 2.805479-32.263014 19.638356-30.860274 39.276712 0 1.40274 0 2.805479 1.40274 4.208219-47.693151-28.054795-103.80274-44.887671-164.120548-44.887671-57.512329 0-110.816438 15.430137-157.10685 40.679452 2.805479-19.638356-11.221918-36.471233-30.860274-39.276712-9.819178-1.40274-21.041096-1.40274-32.263013-1.40274C140.273973 533.041096 16.832877 656.482192 16.832877 807.978082c0 19.638356 15.430137 35.068493 35.068493 35.068493s35.068493-15.430137 35.068493-35.068493c0-113.621918 92.580822-206.20274 206.20274-206.20274 7.013699 0 12.624658 0 19.638356 1.40274-74.345205 58.915068-122.038356 150.093151-122.038356 252.493151 0 19.638356 15.430137 35.068493 35.068493 35.068493s35.068493-15.430137 35.068493-35.068493c0-140.273973 113.621918-253.89589 253.89589-253.895891 140.273973 0 253.89589 113.621918 253.895891 253.895891 0 19.638356 15.430137 35.068493 35.068493 35.068493s35.068493-15.430137 35.068493-35.068493c0-102.4-47.693151-193.578082-122.038356-252.493151 8.416438-1.40274 16.832877-1.40274 25.249315-1.40274 113.621918 0 206.20274 92.580822 206.20274 206.20274 0 19.638356 15.430137 35.068493 35.068493 35.068493s35.068493-15.430137 35.068493-35.068493C1016.986301 656.482192 893.545205 533.041096 740.646575 533.041096z" p-id="9350"></path></svg>