<svg t="1653838864381" class="icon" viewBox="0 0 1024 1024" version="1.1" xmlns="http://www.w3.org/2000/svg" p-id="49864" width="32" height="32"><path d="M765.604952 364.063693l-42.267663 0 0-84.535325c0-116.65793-94.679359-211.337289-211.337289-211.337289s-211.337289 94.679359-211.337289 211.337289l0 84.535325-42.267663 0c-46.705742 0-84.535325 37.829584-84.535325 84.535325l0 422.674579c0 46.705742 37.829584 84.535325 84.535325 84.535325l507.209904 0c46.705742 0 84.535325-37.829584 84.535325-84.535325L850.140277 448.599018C850.140277 401.893276 812.310693 364.063693 765.604952 364.063693zM512 744.470609c-46.705742 0-84.535325-37.829584-84.535325-84.535325 0-46.705742 37.829584-84.535325 84.535325-84.535325s84.535325 37.829584 84.535325 84.535325C596.534302 706.642049 558.705742 744.470609 512 744.470609zM643.029242 364.063693 380.970758 364.063693l0-84.535325c0-72.27714 58.752102-131.029242 131.029242-131.029242S643.029242 207.251228 643.029242 279.528368L643.029242 364.063693z" fill="#ffbf27" p-id="49865"></path></svg>