<svg t="1653836338710" class="icon" viewBox="0 0 1024 1024" version="1.1" xmlns="http://www.w3.org/2000/svg" p-id="44599" width="32" height="32"><path d="M926.6 430.9h-89.2c-8.1-32.8-21.1-63.9-38.8-92.8l62.8-62.8c3-3 4.7-7.1 4.7-11.3s-1.7-8.3-4.7-11.3l-90.5-90.5c-3-3-7.1-4.7-11.3-4.7s-8.3 1.7-11.3 4.7l-63.1 63.1c-29-17.5-60.2-30.3-93-38.3V98.2c0-8.8-7.2-16-16-16h-128c-8.8 0-16 7.2-16 16v89.2c-32.8 8.1-63.9 21.1-92.8 38.8l-62.8-62.8c-6.2-6.2-16.4-6.2-22.6 0l-90.5 90.5c-6.2 6.2-6.2 16.4 0 22.6l63.1 63.1c-17.5 29-30.3 60.2-38.3 93H99.4c-8.8 0-16 7.2-16 16v128c0 8.8 7.2 16 16 16h89.2c8.1 32.8 21.1 63.9 38.8 92.8l-62.8 62.8c-3 3-4.7 7.1-4.7 11.3s1.7 8.3 4.7 11.3l90.5 90.5c6.2 6.2 16.4 6.2 22.6 0l63.1-63.1c29 17.5 60.2 30.3 93 38.3v88.8c0 8.8 7.2 16 16 16h128c8.8 0 16-7.2 16-16v-89.2c32.8-8.1 63.9-21.1 92.8-38.8l62.8 62.8c3 3 7.1 4.7 11.3 4.7s8.3-1.7 11.3-4.7l90.5-90.5c6.2-6.2 6.2-16.4 0-22.6l-63.1-63.1c17.5-29 30.3-60.2 38.3-93h88.8c8.8 0 16-7.2 16-16v-128c0.1-8.9-7.1-16-15.9-16z m-16 128H825c-7.6 0-14.2 5.4-15.7 12.8-7.6 37.8-22.2 73.3-43.5 105.7-4.2 6.3-3.3 14.7 2.1 20.1l60.8 60.8-67.9 67.9-60.6-60.6c-5.4-5.4-13.8-6.2-20.2-2-32.2 21.4-67.7 36.2-105.4 44.1-7.4 1.5-12.8 8.1-12.8 15.7v86h-96v-85.6c0-7.6-5.4-14.2-12.8-15.7-37.8-7.6-73.3-22.2-105.7-43.5-6.3-4.2-14.7-3.3-20.1 2.1l-60.8 60.8-67.9-67.9 60.6-60.6c5.4-5.4 6.2-13.8 2-20.2-21.4-32.2-36.2-67.7-44.1-105.4-1.5-7.4-8.1-12.8-15.7-12.8h-86v-96H201c7.6 0 14.2-5.4 15.7-12.8 7.6-37.8 22.2-73.3 43.5-105.7 4.2-6.3 3.3-14.7-2.1-20.1l-60.8-60.8 67.9-67.9 60.6 60.6c5.4 5.4 13.8 6.2 20.2 2 32.2-21.4 67.7-36.2 105.4-44.1 7.4-1.5 12.8-8.1 12.8-15.7v-86h96v85.6c0 7.6 5.4 14.2 12.8 15.7 37.8 7.6 73.3 22.2 105.7 43.5 6.3 4.2 14.7 3.3 20.1-2.1l60.8-60.8 67.9 67.9-60.6 60.6c-5.4 5.4-6.2 13.8-2 20.2 21.4 32.2 36.2 67.7 44.1 105.4 1.5 7.4 8.1 12.8 15.7 12.8h86v96z" p-id="44600"></path><path d="M638.7 446.8c-8.3 3.1-12.4 12.4-9.3 20.6 5.4 14.3 8.2 29.4 8.2 44.8 0 69.6-56.6 126.2-126.2 126.2s-126.2-56.6-126.2-126.2c0-63.4 47.3-117.2 110.1-125.2 8.8-1.1 15-9.1 13.9-17.9-1.1-8.8-9.1-15-17.9-13.9-78.7 10-138.1 77.5-138.1 156.9 0 87.2 71 158.2 158.2 158.2s158.2-71 158.2-158.2c0-19.3-3.5-38.2-10.3-56.2-3.1-8.1-12.4-12.3-20.6-9.1z" p-id="44601"></path><path d="M548.5 391.6c19 5.8 36.5 16.3 50.8 30.2 3.1 3 7.1 4.5 11.2 4.5 4.2 0 8.3-1.6 11.5-4.8 6.2-6.3 6-16.5-0.3-22.6-17.9-17.4-40-30.5-63.7-37.8-8.4-2.6-17.4 2.1-20 10.6-2.7 8.3 2.1 17.3 10.5 19.9z" p-id="44602"></path></svg>