<svg t="1653889062918" class="icon" viewBox="0 0 1024 1024" version="1.1" xmlns="http://www.w3.org/2000/svg" p-id="52188" width="48" height="48"><path d="M556.8 134.4L416 275.2c44.8-12.8 96-19.2 140.8-6.4 6.4 0 12.8 6.4 19.2 6.4l64-57.6c44.8-44.8 121.6-44.8 166.4 0 44.8 44.8 44.8 121.6 0 166.4l-108.8 108.8-64 64c-12.8 12.8-32 25.6-51.2 25.6-38.4 12.8-83.2 0-115.2-32-19.2-19.2-25.6-25.6-25.6-57.6-12.8 6.4-12.8 6.4-19.2 12.8L345.6 582.4c12.8 25.6 19.2 38.4 38.4 57.6 32 32 70.4 51.2 108.8 64 64 19.2 128 6.4 185.6-25.6 19.2-12.8 32-19.2 44.8-38.4l166.4-166.4c96-96 96-243.2 0-339.2-89.6-96-243.2-96-332.8 0z" fill="#1296db" p-id="52189"></path><path d="M608 748.8c-51.2 19.2-108.8 12.8-160 0l-64 57.6c-44.8 44.8-121.6 44.8-166.4 0-44.8-44.8-44.8-121.6 0-166.4L384 467.2c12.8-12.8 32-25.6 51.2-32 38.4-12.8 83.2 0 115.2 32 25.6 25.6 25.6 32 32 57.6 6.4 0 12.8-6.4 19.2-12.8l76.8-76.8c-12.8-19.2-19.2-32-38.4-51.2-32-32-70.4-51.2-108.8-64-64-19.2-128-6.4-185.6 25.6-12.8 12.8-32 25.6-44.8 38.4L134.4 556.8C38.4 652.8 38.4 800 134.4 896s243.2 96 339.2 0l134.4-147.2z" fill="#1296db" p-id="52190"></path></svg>