<svg t="1653573764332" class="icon" viewBox="0 0 1024 1024" version="1.1" xmlns="http://www.w3.org/2000/svg" p-id="5660" width="32" height="32"><path d="M733.199807 518.174626c-7.409551 0-13.435986-6.026435-13.435986-13.435986V405.253063c0-101.659045-82.789387-184.448432-184.448433-184.448432H516.939701c-101.659045 0-184.448432 82.789387-184.448432 184.448432 0 7.409551-6.026435 13.435986-13.435987 13.435987s-13.435986-6.026435-13.435986-13.435987c0-28.551471 5.631259-56.213796 16.597395-82.295417 10.669754-25.192475 25.884033-47.816305 45.346454-67.179933 19.462422-19.462422 41.987458-34.6767 67.179933-45.346454 26.081621-11.06493 53.743946-16.597395 82.295417-16.597395h18.375687c28.551471 0 56.213796 5.631259 82.295418 16.597395 25.192475 10.669754 47.816305 25.884033 67.179932 45.346454s34.6767 41.987458 45.346454 67.179933c11.06493 26.081621 16.597395 53.743946 16.597396 82.295417v99.386783c-0.197588 7.508345-6.224023 13.534781-13.633575 13.53478z" fill="#FF9D00" p-id="5661"></path><path d="M319.450458 508.097636c-67.476315 0-122.998553 55.127062-122.998553 122.603377v269.411288c0 67.081138 55.621032 123.887699 122.998553 123.887699h416.317994c67.476315 0 122.603377-56.905355 122.603376-124.381669V630.207043c0-67.476315-52.953594-122.603377-123.492523-122.603377l-415.428847 0.49397z" fill="#FF9D00" p-id="5662"></path><path d="M577.204052 84.765268a11.954076 2.173468 90 1 0 4.346937 0 11.954076 2.173468 90 1 0-4.346937 0Z" fill="#E61F19" p-id="5663"></path><path d="M567.087398 88.436236a11.954076 2.173468 60 1 0 3.764558-2.173468 11.954076 2.173468 60 1 0-3.764558 2.173468Z" fill="#E61F19" p-id="5664"></path><path d="M560.259363 96.640306a11.954076 2.173468 30 1 0 2.173469-3.764557 11.954076 2.173468 30 1 0-2.173469 3.764557Z" fill="#E61F19" p-id="5665"></path><path d="M546.479112 105.116836a11.954076 2.173468 0 1 0 23.908153 0 11.954076 2.173468 0 1 0-23.908153 0Z" fill="#E61F19" p-id="5666"></path><path d="M550.634868 121.365965a2.173468 11.954076 60 1 0 20.705067-11.954076 2.173468 11.954076 60 1 0-20.705067 11.954076Z" fill="#E61F19" p-id="5667"></path><path d="M562.388303 133.45707a2.173468 11.954076 30 1 0 11.954077-20.705067 2.173468 11.954076 30 1 0-11.954077 20.705067Z" fill="#E61F19" p-id="5668"></path><path d="M576.512494 126.061167a11.954076 2.173468 90 1 0 4.346937 0 11.954076 2.173468 90 1 0-4.346937 0Z" fill="#E61F19" p-id="5669"></path><path d="M587.174434 124.563547a11.954076 2.173468 60 1 0 3.764558-2.173468 11.954076 2.173468 60 1 0-3.764558 2.173468Z" fill="#E61F19" p-id="5670"></path><path d="M595.679044 117.914762a11.954076 2.173468 30 1 0 2.173468-3.764558 11.954076 2.173468 30 1 0-2.173468 3.764558Z" fill="#E61F19" p-id="5671"></path><path d="M587.676218 105.808394a11.954076 2.173468 0 1 0 23.908152 0 11.954076 2.173468 0 1 0-23.908152 0Z" fill="#E61F19" p-id="5672"></path><path d="M586.686817 101.413799a2.173468 11.954076 60 1 0 20.705067-11.954076 2.173468 11.954076 60 1 0-20.705067 11.954076Z" fill="#E61F19" p-id="5673"></path><path d="M583.666549 98.124181a2.173468 11.954076 30 1 0 11.954077-20.705067 2.173468 11.954076 30 1 0-11.954077 20.705067Z" fill="#E61F19" p-id="5674"></path><path d="M655.350121 14.423927m-14.423927 0a14.423927 14.423927 0 1 0 28.847853 0 14.423927 14.423927 0 1 0-28.847853 0Z" fill="#2C65AF" p-id="5675"></path><path d="M442.942981 74.095514c-2.272262 0-4.050555-1.877086-4.050555-4.050555V25.785239c0-2.272262 1.877086-4.050555 4.050555-4.050555 2.272262 0 4.050555 1.877086 4.050555 4.050555v44.358514c0.098794 2.173468-1.778292 3.951761-4.050555 3.951761z" fill="#7CCBE2" p-id="5676"></path><path d="M465.171635 51.965654h-44.358514c-2.272262 0-4.050555-1.877086-4.050555-4.050555s1.877086-4.050555 4.050555-4.050555h44.358514c2.272262 0 4.050555 1.877086 4.050555 4.050555s-1.877086 4.050555-4.050555 4.050555z" fill="#7CCBE2" p-id="5677"></path><path d="M796.526773 206.677086c-4.346937-1.877086-8.990256-0.790352-10.472166 2.371057l-26.970767 62.536613c-1.383116 3.260203 0.98794 7.310757 5.433671 9.187844 4.445731 1.877086 8.990256 0.790352 10.472166-2.371056l26.970767-62.43782c1.284322-3.260203-1.086734-7.409551-5.433671-9.286638z" fill="#2C65AF" p-id="5678"></path><path d="M743.474385 227.720212c-1.877086 4.346937-0.790352 8.990256 2.371056 10.472166l62.43782 26.970767c3.260203 1.383116 7.310757-0.98794 9.187844-5.433671 1.877086-4.346937 0.790352-8.990256-2.371057-10.472166l-62.437819-26.970767c-3.161409-1.284322-7.310757 1.086734-9.187844 5.433671z" fill="#2C65AF" p-id="5679"></path><path d="M731.915485 146.511529c-20.252774 0-36.751375-16.399807-36.751375-36.454993s16.498601-36.454993 36.751375-36.454992c20.252774 0 36.751375 16.399807 36.751375 36.454992S752.168259 146.511529 731.915485 146.511529z m0-63.228172c-14.917897 0-27.069561 11.954076-27.069561 26.773179s12.151664 26.773179 27.069561 26.773179c14.917897 0 27.069561-11.954076 27.069561-26.773179S746.833382 83.283357 731.915485 83.283357z" fill="#E62A52" p-id="5680"></path><path d="M694.373758 1004.438784H278.055765c-18.276893 0-36.158611-3.754173-53.052388-11.06493-16.202219-7.014375-30.823734-17.091365-43.370574-29.736999-12.54684-12.744428-22.426242-27.365943-29.24303-43.666956-7.113169-16.893777-10.768548-34.6767-10.768548-52.8548v-37.442933c0-7.409551 6.026435-13.435986 13.435987-13.435987s13.435986 6.026435 13.435986 13.435987v37.442933c0 59.869175 50.187361 110.451712 109.562567 110.451712h416.317993c59.177617 0 109.16739-50.780125 109.16739-110.945682v-24.994887c0-7.409551 6.026435-13.435986 13.435987-13.435986s13.435986 6.026435 13.435986 13.435986v24.994887c0 18.276893-3.556585 36.158611-10.669754 53.151182-6.915581 16.399807-16.696189 31.120116-29.144235 43.76575-25.884033 26.378003-59.967969 40.900724-96.225374 40.900723z m122.603377-206.479498c-7.409551 0-13.435986-6.026435-13.435987-13.435986V597.111047c0-61.252291-48.310275-109.16739-110.056536-109.16739l-415.428847 0.395176c-60.461939 0-109.562566 49.001833-109.562567 109.16739v15.708249c0 7.409551-6.026435 13.435986-13.435986 13.435986s-13.435986-6.026435-13.435987-13.435986v-15.708249c0-36.257405 14.226339-70.341341 40.209166-96.12658 25.884033-25.686445 60.066763-39.912783 96.324168-39.912783l415.428847-0.395176c37.442933 0 72.218427 14.226339 97.806078 40.011577 25.291269 25.488857 39.122431 59.572793 39.122431 96.12658v187.412253c-0.098794 7.310757-6.125229 13.337192-13.53478 13.337192z m-661.919923-25.785239c-7.409551 0-13.435986-6.026435-13.435987-13.435986v-91.186879c0-7.409551 6.026435-13.435986 13.435987-13.435987s13.435986 6.026435 13.435986 13.435987v91.186879c0 7.409551-6.026435 13.435986-13.435986 13.435986z" fill="" p-id="5681"></path><path d="M450.451327 766.937964v52.558418c0 19.462422 14.522721 34.874288 33.985142 34.874289h3.062614c19.462422 0 33.491172-15.411867 33.491173-34.874289V766.937964c26.476797-12.843222 39.320019-37.047757 39.320019-65.302846 0-41.493488-33.095996-74.98466-74.49069-74.98466s-74.095514 33.491172-74.095514 74.98466c0 27.761119 16.696189 52.459624 38.727256 65.302846z" fill="" p-id="5682"></path><path d="M691.805113 484.979836c-7.409551 0-13.435986-6.026435-13.435986-13.435987V372.157067c0-101.659045-82.789387-184.448432-184.448432-184.448432h-18.375688c-101.659045 0-184.448432 82.789387-184.448432 184.448432 0 7.409551-6.026435 13.435986-13.435986 13.435987s-13.435986-6.026435-13.435987-13.435987c0-28.551471 5.631259-56.213796 16.597395-82.295417 10.669754-25.192475 25.884033-47.816305 45.346455-67.179933 19.462422-19.462422 41.987458-34.6767 67.179932-45.346454 26.081621-11.06493 53.743946-16.597395 82.295417-16.597395h18.375688c28.551471 0 56.213796 5.631259 82.295417 16.597395 25.192475 10.669754 47.816305 25.884033 67.179932 45.346454 19.462422 19.462422 34.6767 41.987458 45.346455 67.179933 11.06493 26.081621 16.597395 53.743946 16.597395 82.295417V471.543849c-0.098794 7.409551-6.125229 13.435986-13.633575 13.435987z" fill="" p-id="5683"></path></svg>