<svg t="1638379354261" class="icon" viewBox="0 0 1028 1024" version="1.1" xmlns="http://www.w3.org/2000/svg" p-id="10835" width="200" height="200"><path d="M682.666667 136.533333c-8.533333 0-25.6-8.533333-34.133334-8.533333L546.133333 8.533333c-17.066667-8.533333-51.2-8.533333-68.266666 0L366.933333 128c-8.533333 8.533333-17.066667 8.533333-25.6 8.533333H179.2c-25.6 0-42.666667 17.066667-42.666667 42.666667V341.333333c0 8.533333-8.533333 25.6-8.533333 34.133334L8.533333 477.866667c-8.533333 17.066667-8.533333 51.2 0 68.266666l110.933334 110.933334c17.066667 8.533333 17.066667 17.066667 17.066666 25.6v162.133333c0 25.6 17.066667 42.666667 42.666667 42.666667H341.333333c8.533333 0 25.6 8.533333 34.133334 8.533333l110.933333 110.933333c17.066667 17.066667 42.666667 17.066667 59.733333 0l110.933334-110.933333c8.533333-8.533333 17.066667-8.533333 34.133333-8.533333H853.333333c25.6 0 42.666667-17.066667 42.666667-42.666667V682.666667c0-8.533333 8.533333-25.6 8.533333-34.133334l110.933334-110.933333c17.066667-17.066667 17.066667-42.666667 0-59.733333l-110.933334-110.933334c-8.533333-8.533333-8.533333-17.066667-8.533333-34.133333V179.2c0-25.6-17.066667-42.666667-42.666667-42.666667H682.666667z" fill="#FFC47E" p-id="10836"></path><path d="M469.333333 665.6L307.2 503.466667l68.266667-68.266667 93.866666 93.866667 179.2-179.2 68.266667 68.266666z" fill="#2F435B" p-id="10837"></path></svg>
