<svg t="1653824392890" class="icon" viewBox="0 0 1024 1024" version="1.1" xmlns="http://www.w3.org/2000/svg" p-id="42454" width="32" height="32"><path d="M467.776 786.24c-6.912-6.976-20.992-2.304-20.992 9.344v204.096c0 9.344 11.648 16.384 20.992 9.344l102.464-94.528a22.592 22.592 0 0 0 0-32.64l-102.464-95.616z" p-id="42455"></path><path d="M511.872 885.76a372.416 372.416 0 0 1-373.568-373.76c0-145.792 83.392-270.336 203.776-332.032 0 0 14.656-8.384 9.344-28.928-5.312-20.48-21.248-13.76-21.248-13.76a415.936 415.936 0 0 0-234.56 374.72 414.08 414.08 0 0 0 455.296 414.08l-11.648-41.664c-9.088 0.64-18.176 1.344-27.392 1.344zM556.224 237.76c6.912 6.976 20.992 2.304 20.992-9.344v-204.096c0-9.344-11.648-16.384-20.992-9.344l-102.464 94.528a22.592 22.592 0 0 0 0 32.64l102.464 95.616z" p-id="42456"></path><path d="M512.128 138.304a372.416 372.416 0 0 1 373.568 373.76c0 145.792-83.392 270.336-203.776 332.032 0 0-14.656 8.384-9.344 28.928 5.312 20.48 21.248 13.76 21.248 13.76a415.936 415.936 0 0 0 234.56-374.72 414.08 414.08 0 0 0-455.296-414.08l11.648 41.664c9.088-0.704 18.176-1.344 27.392-1.344z" p-id="42457"></path></svg>