<svg t="1636268270227" class="icon" viewBox="0 0 1024 1024" version="1.1" xmlns="http://www.w3.org/2000/svg" p-id="15504" width="200" height="200"><path d="M675.328 117.717333A425.429333 425.429333 0 0 0 512 85.333333C276.352 85.333333 85.333333 276.352 85.333333 512s191.018667 426.666667 426.666667 426.666667 426.666667-191.018667 426.666667-426.666667c0-56.746667-11.093333-112-32.384-163.328a21.333333 21.333333 0 0 0-39.402667 16.341333A382.762667 382.762667 0 0 1 896 512c0 212.074667-171.925333 384-384 384S128 724.074667 128 512 299.925333 128 512 128c51.114667 0 100.8 9.984 146.986667 29.12a21.333333 21.333333 0 0 0 16.341333-39.402667zM456.704 305.92C432.704 289.152 405.333333 303.082667 405.333333 331.797333v360.533334c0 28.586667 27.541333 42.538667 51.370667 25.856l252.352-176.768c21.76-15.253333 21.632-43.541333 0-58.709334l-252.373333-176.768z m-8.597333 366.72V351.466667l229.269333 160.597333-229.269333 160.597333z" p-id="15505"></path></svg>
