<svg t="1636265611145" class="icon" viewBox="0 0 1024 1024" version="1.1" xmlns="http://www.w3.org/2000/svg" p-id="13284" width="200" height="200"><path d="M68.549 528.08c0 134.558 60.086 254.73 155.715 335.973h577.164c94.784-81.243 154.87-201.415 154.87-335.974 0-243.729-198.877-441.758-443.452-441.758S68.55 283.504 68.55 528.079z" fill="#D8D8D8" p-id="13285"></path><path d="M198.03 876.747c-3.385 0-5.924-2.539-5.924-5.924 0-3.385 2.539-5.924 5.924-5.924h253.884c3.385 0 5.924 2.539 5.924 5.924 0 3.385-2.539 5.924-5.924 5.924H198.03z m279.272 0c-3.385 0-5.923-2.539-5.923-5.924 0-3.385 2.538-5.924 5.923-5.924h50.777c3.385 0 5.924 2.539 5.924 5.924 0 3.385-2.539 5.924-5.924 5.924h-50.777z m76.166 0c-3.385 0-5.924-2.539-5.924-5.924 0-3.385 2.539-5.924 5.924-5.924s5.924 2.539 5.924 5.924c0 3.385-2.54 5.924-5.924 5.924z m24.542 0c-3.385 0-5.924-2.539-5.924-5.924 0-3.385 2.539-5.924 5.924-5.924h237.805c3.385 0 5.924 2.539 5.924 5.924 0 3.385-2.539 5.924-5.924 5.924H578.01zM281.812 1024c-3.386 0-6.77-2.539-6.77-6.77 0-3.385 2.538-6.77 6.77-6.77h271.656c3.385 0 6.77 2.538 6.77 6.77 0 3.385-2.539 6.77-6.77 6.77H281.812z m298.737 0c-3.385 0-6.77-2.539-6.77-6.77 0-3.385 2.538-6.77 6.77-6.77h54.162c3.385 0 6.77 2.538 6.77 6.77 0 3.385-2.539 6.77-6.77 6.77h-54.162z m81.243 0c-3.385 0-6.77-2.539-6.77-6.77 0-3.385 2.538-6.77 6.77-6.77 3.385 0 6.77 2.538 6.77 6.77 0.846 3.385-3.385 6.77-6.77 6.77z m27.08 0c-3.384 0-6.77-2.539-6.77-6.77 0-3.385 2.54-6.77 6.77-6.77h43.161c3.385 0 6.77 2.538 6.77 6.77 0 3.385-2.539 6.77-6.77 6.77h-43.16zM400.292 917.369c-3.385 0-5.924-2.54-5.924-5.924 0-3.385 2.539-5.924 5.924-5.924h126.942c3.385 0 5.924 2.539 5.924 5.924 0 3.385-2.539 5.924-5.924 5.924H400.291z m153.177 0c-3.385 0-5.924-2.54-5.924-5.924 0-3.385 2.539-5.924 5.924-5.924h50.777c3.385 0 5.924 2.539 5.924 5.924 0 3.385-2.54 5.924-5.924 5.924h-50.777z m75.319 0c-3.385 0-5.924-2.54-5.924-5.924 0-3.385 2.539-5.924 5.924-5.924s5.924 2.539 5.924 5.924c0.846 3.385-1.693 5.924-5.924 5.924z m25.388 0c-3.385 0-5.924-2.54-5.924-5.924 0-3.385 2.54-5.924 5.924-5.924h83.782c3.385 0 5.924 2.539 5.924 5.924 0 3.385-2.539 5.924-5.924 5.924h-83.782z" fill="#BDBABD" p-id="13286"></path><path d="M643.174 806.506c0-2.54 2.538-4.232 4.231-4.232 2.539 0 4.231 2.54 4.231 4.232v35.544c0 2.538-2.538 4.231-4.231 4.231-2.539 0-4.231-2.539-4.231-4.231v-35.544z m0-105.785c0-2.54 2.538-4.232 4.231-4.232 2.539 0 4.231 2.54 4.231 4.232v88.013c0 2.539-2.538 4.231-4.231 4.231-2.539 0-4.231-2.539-4.231-4.231V700.72z m44.006 85.474c0-2.539 2.539-4.231 4.232-4.231 2.538 0 4.231 2.538 4.231 4.231v44.007c0 2.538-2.539 4.231-4.231 4.231-2.54 0-4.232-2.539-4.232-4.231v-44.007z m0-61.778c0-2.54 2.539-4.232 4.232-4.232 2.538 0 4.231 2.539 4.231 4.232v44.006c0 2.539-2.539 4.232-4.231 4.232-2.54 0-4.232-2.54-4.232-4.232v-44.006zM367.286 780.27c0-2.539 2.539-4.231 4.231-4.231s4.232 2.539 4.232 4.231v44.007c0 2.539-2.54 4.231-4.232 4.231s-4.231-2.539-4.231-4.231V780.27z m0-61.778c0-2.54 2.539-4.232 4.231-4.232s4.232 2.539 4.232 4.232v44.006c0 2.539-2.54 4.232-4.232 4.232s-4.231-2.54-4.231-4.232v-44.006zM607.63 812.43c0-2.54 2.539-4.232 4.231-4.232s4.232 2.54 4.232 4.232v8.463c0 2.538-2.54 4.231-4.232 4.231s-4.231-2.539-4.231-4.231v-8.463z m0-61.779c0-2.539 2.539-4.231 4.231-4.231s4.232 2.539 4.232 4.231v44.007c0 2.539-2.54 4.231-4.232 4.231s-4.231-2.539-4.231-4.231V750.65zM341.05 794.658c0-2.539 2.54-4.232 4.232-4.232 2.538 0 4.231 2.54 4.231 4.232v8.463c0 2.539-2.539 4.231-4.231 4.231-2.54 0-4.232-2.539-4.232-4.231v-8.463z m0-61.779c0-2.539 2.54-4.231 4.232-4.231 2.538 0 4.231 2.539 4.231 4.231v44.007c0 2.539-2.539 4.231-4.231 4.231-2.54 0-4.232-2.538-4.232-4.231v-44.007z m76.166 17.772c0-2.539 2.538-4.231 4.23-4.231s4.232 2.539 4.232 4.231v44.007c0 2.539-2.539 4.231-4.231 4.231s-4.231-2.539-4.231-4.231V750.65z" fill="#FFFFFF" p-id="13287"></path><path d="M643.174 806.506c0-2.54 2.538-4.232 4.231-4.232 2.539 0 4.231 2.54 4.231 4.232v35.544c0 2.538-2.538 4.231-4.231 4.231-2.539 0-4.231-2.539-4.231-4.231v-35.544z m0-105.785c0-2.54 2.538-4.232 4.231-4.232 2.539 0 4.231 2.54 4.231 4.232v88.013c0 2.539-2.538 4.231-4.231 4.231-2.539 0-4.231-2.539-4.231-4.231V700.72z m44.006 85.474c0-2.539 2.539-4.231 4.232-4.231 2.538 0 4.231 2.538 4.231 4.231v44.007c0 2.538-2.539 4.231-4.231 4.231-2.54 0-4.232-2.539-4.232-4.231v-44.007z m0-61.778c0-2.54 2.539-4.232 4.232-4.232 2.538 0 4.231 2.539 4.231 4.232v44.006c0 2.539-2.539 4.232-4.231 4.232-2.54 0-4.232-2.54-4.232-4.232v-44.006zM367.286 780.27c0-2.539 2.539-4.231 4.231-4.231s4.232 2.539 4.232 4.231v44.007c0 2.539-2.54 4.231-4.232 4.231s-4.231-2.539-4.231-4.231V780.27z m0-61.778c0-2.54 2.539-4.232 4.231-4.232s4.232 2.539 4.232 4.232v44.006c0 2.539-2.54 4.232-4.232 4.232s-4.231-2.54-4.231-4.232v-44.006z m536.542-217.495c-16.926 0-29.62-13.54-29.62-29.62s13.54-29.62 29.62-29.62 29.62 13.541 29.62 29.62c0 16.926-12.694 29.62-29.62 29.62z m0-8.462c11.002 0 21.157-8.463 21.157-21.157 0-11.002-8.463-21.158-21.157-21.158s-21.157 8.463-21.157 21.158 10.155 21.157 21.157 21.157z m-62.625-83.782h-2.539c-1.692 0-2.538-1.693-2.538-2.54v-47.39c0-1.693 1.692-2.54 2.538-2.54h2.54c1.692 0 2.538 1.693 2.538 2.54v47.39c0.846 0.847-0.846 2.54-2.539 2.54z m22.004-22.004h-47.392c-1.693 0-2.539-1.692-2.539-2.538v-2.54c0-1.692 1.693-2.538 2.539-2.538h47.392c1.692 0 2.538 1.692 2.538 2.539v2.539c0.847 0.846 0 2.538-2.538 2.538z" fill="#FFFFFF" p-id="13288"></path><path d="M323.28 92.245c-8.463 0-14.387-6.77-14.387-14.387 0-7.617 6.77-14.387 14.386-14.387 8.463 0 14.387 6.77 14.387 14.387 0 6.77-5.924 14.387-14.387 14.387z m0-9.31c3.384 0 5.923-2.538 5.923-5.923 0-3.386-2.539-5.924-5.924-5.924-3.385 0-5.924 2.538-5.924 5.924-0.846 2.538 2.54 5.924 5.924 5.924z m-156.563 59.24c0 8.463 6.77 14.387 14.387 14.387s14.387-6.77 14.387-14.387c0-7.616-6.77-14.387-14.387-14.387s-14.387 5.924-14.387 14.387z m151.485-47.392c5.077 0 8.462 4.232 8.462 8.463 0 5.078-4.23 8.463-8.462 8.463s-8.463-4.231-8.463-8.463c0-5.077 4.231-8.463 8.463-8.463z m561.084-75.319H875.9c-2.539 0-3.385-1.692-3.385-3.385V3.385C872.516 0.846 874.208 0 875.9 0h2.539c2.539 0 3.385 1.693 3.385 3.385V16.08c0.846 1.693-0.846 3.385-2.54 3.385z m0 45.7H875.9c-2.539 0-3.385-1.693-3.385-3.385V49.084c0-2.539 1.692-3.385 3.385-3.385h2.539c2.539 0 3.385 1.693 3.385 3.385V61.78c0.846 1.692-0.846 3.385-2.54 3.385z m27.927-26.235h-13.54c-2.54 0-3.385-1.693-3.385-3.385v-2.539c0-2.539 1.692-3.385 3.385-3.385h13.54c2.54 0 3.385 1.692 3.385 3.385v2.539c-0.846 1.692-1.692 3.385-3.385 3.385z m-44.853 0h-13.54c-2.539 0-3.385-1.693-3.385-3.385v-2.539c0-2.539 1.692-3.385 3.385-3.385h13.54c2.54 0 3.385 1.692 3.385 3.385v2.539c-0.846 1.692-2.538 3.385-3.385 3.385z m54.162 137.944c3.385 0 5.924-2.54 5.924-5.924s-2.539-5.924-5.924-5.924-5.924 2.539-5.924 5.924 1.693 5.924 5.924 5.924z m8.463-111.71c3.385 0 5.924 2.54 5.924 5.925s-2.539 5.924-5.924 5.924-5.924-2.54-5.924-5.924c0-3.386 2.539-5.924 5.924-5.924z" fill="#CCCCCC" p-id="13289"></path><path d="M272.502 144.714c-13.54 0-23.695-10.155-23.695-23.696s10.155-23.696 23.695-23.696 23.696 10.156 23.696 23.696c0.847 13.54-10.155 23.696-23.696 23.696z m0-8.463c8.463 0 14.387-6.77 14.387-14.387 0-7.616-6.77-14.386-14.387-14.386-8.462 0-14.386 6.77-14.386 14.386 0 7.617 6.77 14.387 14.386 14.387z" fill="#D8D8D8" p-id="13290"></path><path d="M209.031 297.045l-14.386 14.386 14.386 14.387c1.693 1.693 1.693 3.385 0 5.078l-1.692 1.692c-1.693 1.693-3.385 1.693-5.078 0l-14.387-14.386-14.386 14.386c-1.693 1.693-3.386 1.693-5.078 0l-1.693-1.692c-1.692-1.693-1.692-3.385 0-5.078l14.387-14.387-14.387-14.386c-1.692-1.693-1.692-3.385 0-5.078l1.693-1.693c1.692-1.692 3.385-1.692 5.078 0l14.386 14.387 14.387-14.387c1.693-1.692 3.385-1.692 5.078 0l1.692 1.693c1.693 1.693 1.693 4.231 0 5.078z m55.009 95.63c0 11.001-8.463 19.464-19.465 19.464-3.385 0-6.77-0.846-10.155-2.539v12.694c-11.002 0-19.465-8.463-19.465-19.464 0-3.385 0.847-6.77 2.54-9.31H204.8c0-11.001 8.463-19.464 19.464-19.464 3.386 0 6.77 0.846 10.156 2.539v-12.694c11.001 0 19.464 8.463 19.464 19.464 0 3.385-0.846 6.77-2.539 9.31h12.695z m622.016 238.65c0 5.925-4.231 9.31-10.155 9.31-2.539 0-3.385-0.847-5.078-1.693v5.924c-5.078 0-10.155-4.231-10.155-9.309 0-2.539 0.846-3.385 1.692-5.078h-5.924c0-5.924 4.232-9.309 10.156-9.309 2.539 0 3.385 0.847 5.077 1.693v-5.924c5.924 0 10.156 4.231 10.156 9.309 0 2.539-0.846 3.385-1.693 5.078h5.924zM848.82 279.274c-8.463 0-14.387-6.77-14.387-14.387s6.77-14.387 14.387-14.387c8.463 0 14.387 6.77 14.387 14.387s-5.924 14.387-14.387 14.387z" fill="#FFFFFF" p-id="13291"></path><path d="M298.737 85.474h537.389l-20.311 32.16v579.702H238.65V591.55h60.086z" fill="#F6F6F6" p-id="13292"></path><path d="M295.352 551.775h479.841v81.243c0 17.772 14.387 31.313 31.313 31.313l3.385-0.847 14.387 4.232s0 31.312-17.772 31.312h-25.389c-17.772 0-31.312-14.387-31.312-31.312v-81.243H295.352v-34.698z m601.706-331.742h-82.09V119.326c0.847-19.465 18.619-33.852 38.93-33.852h4.23c21.158 0 37.237 15.233 38.93 33.852v100.707z m-11.848-10.155v-90.552c-0.846-13.54-13.54-23.696-27.927-23.696h-4.232c-15.233 0-27.08 11.001-27.927 23.696v89.705l60.086 0.847z" fill="#BDBABD" p-id="13293"></path><path d="M792.965 707.49h-25.388c-17.772 0-31.313-14.386-31.313-31.311v-81.243H281.812V113.402c0-20.311 16.079-35.544 35.543-35.544h544.16c7.616 0 15.232 2.539 19.464 6.77 9.309 6.77 15.233 16.926 15.233 29.62v17.772c0-17.772-14.387-31.313-31.313-31.313h-6.77c-17.772 0-31.312 14.387-31.312 31.313v265.732c0 5.078-4.232 9.31-9.31 9.31s-9.309-4.232-9.309-9.31V131.174c0-14.387 5.924-27.081 15.233-35.544H316.51c-10.155 0-17.772 8.463-17.772 17.772v462.07h437.527c10.156 0 17.772 8.462 17.772 17.771v81.243c0 7.616 6.77 14.387 14.387 14.387h25.389c7.616 0 14.386-6.77 14.386-14.387V505.23c0-5.078 4.232-9.31 9.31-9.31s9.309 4.232 9.309 9.31v170.949c-1.693 16.925-16.08 31.312-33.852 31.312z m23.696-228.495c-5.078 0-9.309-4.231-9.309-9.309v-35.544c0-5.078 4.231-9.309 9.31-9.309s9.308 4.231 9.308 9.31v35.543c-0.846 5.078-5.077 9.309-9.309 9.309z" fill="#BDBABD" p-id="13294"></path><path d="M789.58 711.722H263.193c-19.464 0-35.543-16.079-35.543-35.543v-99.862h390.135c5.078 0 9.31 4.232 9.31 9.31 0 5.077-4.232 9.309-9.31 9.309H245.421v81.243c0 10.155 7.617 17.771 17.772 17.771h487.458c-9.309-9.309-15.233-22.003-15.233-35.543v-64.318h-10.155c-5.078 0-9.31-4.231-9.31-9.309 0-5.078 4.232-9.309 9.31-9.309h28.773v81.243c0 17.772 14.387 31.312 31.313 31.312h6.77c2.539 0 5.924 0 8.463-0.846 13.54-3.385 23.696-16.08 23.696-31.312v17.772c0 22.003-15.233 38.082-34.698 38.082zM689.72 594.09h-35.544c-5.077 0-9.309-4.231-9.309-9.309 0-5.078 4.232-9.309 9.31-9.309h35.543c5.078 0 9.31 4.231 9.31 9.31 0 5.077-4.232 9.308-9.31 9.308zM539.927 261.501c0-4.232-3.385-7.617-6.77-7.617-23.696 0-43.16-16.079-51.623-23.696-2.539-1.692-3.385-3.385-5.078-3.385-3.385-1.692-7.616-0.846-9.309 2.54-2.539 3.384-0.846 7.616 2.539 10.155 0.846 0.846 2.539 1.692 3.385 3.385 11.002 8.462 33.005 25.388 60.086 25.388 3.385 0.846 6.77-2.539 6.77-6.77z m86.32-35.544c-0.845 0.846-2.538 1.693-5.077 3.385-10.155 7.617-29.62 23.696-51.623 23.696-3.385 0-6.77 3.385-6.77 7.617s3.385 7.616 6.77 7.616c27.927 0 49.084-17.772 60.086-25.388 1.693-0.847 3.385-2.54 3.385-3.385 3.385-1.693 4.232-6.77 2.539-10.156-1.693-3.385-6.77-5.078-9.31-3.385z m-27.08 193.798l-43.16-23.695c-1.693-0.847-3.386-0.847-5.078 0l-37.236 23.695c-3.386 1.693-4.232 6.77-2.54 10.156 1.693 3.385 5.078 5.924 8.464 3.385l35.543-22.003 38.93 22.003c0.846 0.846 1.692 0.846 2.538 0.846 2.539 0 5.078-1.692 5.924-4.231 1.693-4.232 0-8.463-3.385-10.156z m-108.324-132.02H385.904c-5.078 0-8.463 5.078-8.463 11.848 0 5.924 3.385 11.848 8.463 11.848h20.31c8.464 22.004 2.54 45.7 2.54 45.7-14.387 43.16 0 71.087 0 71.087 8.463 23.696 2.539 50.777 2.539 50.777 33.005-7.616 56.7 7.617 56.7 7.617 16.08-22.004 2.54-55.855 2.54-55.855-10.156-27.927 0-57.547 0-57.547 8.462-23.696 6.77-48.238 5.077-62.625h17.772c5.078 0 8.463-5.078 8.463-11.848-2.54-5.924-6.77-11.001-11.002-11.001z" fill="#BDBABD" p-id="13295"></path><path d="M462.07 367.286l-0.847 1.693c-4.231 14.386-10.155 31.312 2.539 67.702 7.617 22.003 2.539 35.544-0.846 39.775-0.847 0-0.847-0.846-1.693-0.846-7.616-3.385-14.387-5.078-21.157-5.924h-1.692c-3.386-0.846-5.924-0.846-9.31-0.846h-2.538c-2.54 0-5.078 0-6.77 0.846h-1.693c-0.846 0-0.846 0-1.693 0.846 2.54-11.848 2.54-27.927-3.385-38.929-9.309-17.772-8.463-49.93 0-77.011 3.385-11.002 0-29.62-2.539-41.468h55.009c4.231 7.616 5.077 28.774-3.386 54.162z" fill="#FFFFFF" p-id="13296"></path><path d="M721.031 287.736H616.093c-5.078 0-8.463 5.077-8.463 11.847 0 5.924 3.385 11.848 8.463 11.848h18.618c-2.54 15.233-3.385 38.93 5.077 62.625 0 0 10.156 29.62 0 57.547 0 0-14.386 33.852 2.54 55.855 0 0 24.541-15.233 56.7-7.617 0 0-6.77-27.927 2.539-50.777 0 0 14.387-27.927 0-71.087 0 0-6.77-23.696 2.539-45.7h19.464c5.078 0 8.463-5.077 8.463-11.847-1.693-7.617-5.924-12.694-11.002-12.694z" fill="#BDBABD" p-id="13297"></path><path d="M692.258 352.053c8.463 27.927 9.309 60.086 0 77.011-5.924 11.848-5.078 27.928-3.385 38.93-0.847 0-0.847 0-1.693-0.847h-1.692c-2.54-0.846-5.078-0.846-6.77-0.846h-2.54c-2.538 0-5.923 0-9.309 0.846h-1.692c-6.77 0.846-13.54 3.385-21.157 5.924-0.846 0-0.846 0.846-1.693 0.846-3.385-5.924-8.463-17.772-0.846-39.775 12.694-35.544 6.77-53.316 2.539-67.702l-0.846-1.693c-8.463-25.388-5.924-45.7-3.386-57.547h55.009c-2.54 16.08-5.924 33.851-2.54 44.853z" fill="#FFFFFF" p-id="13298"></path></svg>
