<svg t="1638018110661" class="icon" viewBox="0 0 1024 1024" version="1.1" xmlns="http://www.w3.org/2000/svg" p-id="5244" width="200" height="200"><path d="M483.072 896a70.229333 70.229333 0 0 1-70.485333-69.76l-0.298667-49.92c-138.496 30.122667-167.722667-58.752-167.722667-58.752-22.656-57.514667-55.296-72.789333-55.296-72.789333-45.184-30.933333 3.413333-30.293333 3.413334-30.293334 49.92 3.456 76.288 51.285333 76.288 51.285334 44.373333 76.117333 116.48 54.101333 144.853333 41.386666 4.48-32.170667 17.408-54.144 31.616-66.56-110.592-12.586667-226.816-55.338667-226.816-246.058666 0-54.357333 19.456-98.773333 51.328-133.632-5.162667-12.586667-22.186667-63.189333 4.821333-131.754667 0 0 41.813333-13.354667 136.96 51.029333a477.738667 477.738667 0 0 1 124.586667-16.768c42.282667 0.213333 84.906667 5.717333 124.714667 16.768 95.061333-64.426667 136.789333-51.029333 136.789333-51.029333 27.093333 68.608 10.069333 119.210667 4.906667 131.754667 31.914667 34.816 51.2 79.274667 51.2 133.632 0 191.232-116.48 233.344-227.285334 245.632 17.834667 15.488 33.749333 45.738667 33.749334 92.202666 0 66.645333-0.256 93.866667-0.256 93.866667A70.272 70.272 0 0 1 589.738667 896h-106.666667z" p-id="5245" ></path></svg>