<svg t="1636784682086" class="icon" viewBox="0 0 1024 1024" version="1.1" xmlns="http://www.w3.org/2000/svg" p-id="4853" width="200" height="200"><path d="M512 0c282.770286 0 512 229.229714 512 512S794.770286 1024 512 1024 0 794.770286 0 512 229.229714 0 512 0z m171.056762 281.404952c-11.666286 2.706286-21.577143 9.179429-29.744762 19.407238l-2.011429 2.645334-197.144381 311.82019-89.10019-88.649143c-10.288762-9.703619-21.894095-14.555429-34.840381-14.555428-13.226667 0-24.84419 4.998095-34.840381 14.994286-9.99619 9.99619-14.994286 21.455238-14.994286 34.401523 0 12.214857 4.144762 23.161905 12.397715 32.877715l2.157714 2.401523 132.315429 132.315429c9.008762 9.020952 19.797333 13.83619 32.353523 14.482286l2.925715 0.073143h4.851809c14.884571-1.926095 26.416762-8.777143 34.584381-20.516572l1.584762-2.413714L735.085714 356.815238c7.643429-12.348952 10.142476-24.84419 7.497143-37.485714-2.925714-12.641524-10.435048-22.79619-22.491428-30.427429-12.056381-7.643429-24.405333-10.142476-37.046858-7.497143z" fill="#31DC72" p-id="4854"></path></svg>