<svg t="1636884047863" class="icon" viewBox="0 0 1024 1024" version="1.1" xmlns="http://www.w3.org/2000/svg" p-id="20705" width="200" height="200"><path d="M684.950004 337.171206l0 447.459055c0 3.137457-1.027399 6.02011-2.727111 8.388041-3.409656 62.715367-60.523445 123.82312-142.259004 145.715733-96.286973 25.789363-190.235692-12.602016-209.843262-85.755106-19.60757-73.151044 42.551118-153.357783 138.837068-179.149193 59.22487-15.863293 117.535927-7.414877 158.235884 18.439978L627.193579 322.736449c0 0-2.706645-70.815859 115.513874-28.867468 118.222565 41.948391 216.588897 43.302225 216.588897 43.302225l0 57.736982C959.296349 394.907165 818.513976 390.397455 684.950004 337.171206zM623.013373 774.527159c-11.351536-42.35055-81.335447-60.402695-139.107221-44.929282-57.771775 15.473413-109.349477 66.086138-97.997941 108.437711 11.351536 42.35055 81.335447 60.401672 139.107221 44.927235C582.787206 867.48941 634.364909 816.876686 623.013373 774.527159zM540.559453 423.776679 78.501912 423.776679c-7.974625 0-14.43885-6.463202-14.43885-14.434757l0-28.867468c0-7.971555 6.464225-14.434757 14.43885-14.434757l462.057541 0c7.974625 0 14.437827 6.463202 14.437827 14.434757l0 28.867468C554.998303 417.313477 548.534078 423.776679 540.559453 423.776679zM540.559453 279.43627 78.501912 279.43627c-7.974625 0-14.43885-6.463202-14.43885-14.434757l0-28.869514c0-7.971555 6.464225-14.434757 14.43885-14.434757l462.057541 0c7.974625 0 14.437827 6.463202 14.437827 14.434757l0 28.869514C554.998303 272.973068 548.534078 279.43627 540.559453 279.43627zM540.559453 135.093814 78.501912 135.093814c-7.974625 0-14.43885-6.463202-14.43885-14.434757l0-28.867468c0-7.972579 6.464225-14.434757 14.43885-14.434757l462.057541 0c7.974625 0 14.437827 6.462179 14.437827 14.434757l0 28.867468C554.998303 128.630612 548.534078 135.093814 540.559453 135.093814zM78.501912 510.380106l360.982518 0c7.974625 0 14.437827 6.462179 14.437827 14.434757l0 28.868491c0 7.971555-6.464225 14.434757-14.437827 14.434757L78.501912 568.118112c-7.974625 0-14.43885-6.463202-14.43885-14.434757l0-28.868491C64.063061 516.843308 70.527286 510.380106 78.501912 510.380106zM78.501912 640.287805l202.150046 0c7.974625 0 14.43885 6.463202 14.43885 14.434757l0 28.868491c0 7.971555-6.464225 14.432711-14.43885 14.432711L78.501912 698.023764c-7.974625 0-14.43885-6.461155-14.43885-14.432711l0-28.868491C64.063061 646.751007 70.527286 640.287805 78.501912 640.287805z" p-id="20706"></path></svg>