<svg t="1636887538103" class="icon" viewBox="0 0 1024 1024" version="1.1" xmlns="http://www.w3.org/2000/svg" p-id="21592" width="200" height="200"><path d="M810.550168 57.547768H469.578041c-86.209692 0-156.281057 70.126346-156.281058 156.280058v435.763802c-25.175149-14.718825-54.09998-23.754649-85.241032-23.754649-94.052935 0-170.487063 76.492108-170.487063 170.487063 0 94.051935 76.434129 170.487063 170.487063 170.487063 93.993955 0 170.485064-76.435128 170.485063-170.487063v-582.495216a71.099004 71.099004 0 0 1 71.038026-71.037026h340.972127a71.135991 71.135991 0 0 1 71.038026 71.037026v265.276738c-25.175149-14.718825-54.10198-23.754649-85.243032-23.754648-94.052935 0-170.487063 76.492108-170.487063 170.487063 0 94.051935 76.434129 170.487063 170.487063 170.487063 93.993955 0 170.487063-76.435128 170.487063-170.487063V213.827826c-0.001999-86.152712-70.130345-156.280058-156.283056-156.280058z m-582.495217 824.020306a85.243032 85.243032 0 1 1 85.241032-85.243032 85.310008 85.310008 0 0 1-85.240032 85.243032z m568.289211-170.482065a85.243032 85.243032 0 1 1 85.243032-85.243032 85.311008 85.311008 0 0 1-85.243032 85.243032z" p-id="21593"></path></svg>