<svg t="1636282575266" class="icon" viewBox="0 0 1028 1024" version="1.1" xmlns="http://www.w3.org/2000/svg" p-id="37480" width="200" height="200"><path d="M693.527273 339.781818h55.854545v456.145455h-55.854545V339.781818z m-144.290909 456.145455V339.781818h-55.854546v456.145455h55.854546zM293.236364 339.781818h55.854545v456.145455H293.236364V339.781818z m456.145454-167.563636V55.854545c0-32.581818-23.272727-55.854545-55.854545-55.854545H349.090909c-27.927273 0-55.854545 27.927273-55.854545 55.854545v111.709091H9.309091v55.854546h111.709091v740.072727c0 32.581818 23.272727 55.854545 55.854545 55.854546h684.218182c32.581818 0 55.854545-27.927273 55.854546-55.854546V228.072727h111.70909V172.218182h-279.272727zM349.090909 55.854545h339.781818v111.709091H349.090909V55.854545z m512 912.29091H181.527273V228.072727h684.218182v740.072728h-4.654546z" p-id="37481"></path></svg>
