<svg t="1636868701897" class="icon" viewBox="0 0 1024 1024" version="1.1" xmlns="http://www.w3.org/2000/svg" p-id="17555" width="200" height="200"><path d="M96 416C96 239.68 239.68 96 416 96c176.352 0 320 143.68 320 320 0 88.32-35.84 168.32-93.76 226.24A318.88 318.88 0 0 1 416 736C239.68 736 96 592.32 96 416m886.72 521.28l-273.6-273.6C766.08 596.8 800 510.4 800 416c0-211.84-172.16-384-384-384S32 204.16 32 416s172.16 384 384 384c94.4 0 180.8-33.92 247.68-90.88l273.6 273.6c6.4 6.08 14.4 9.28 22.72 9.28 8.352 0 16.352-3.2 22.72-9.28 12.512-12.48 12.512-32.96 0-45.44" p-id="17556" ></path></svg>