<svg t="1653966788318" class="icon" viewBox="0 0 1024 1024" version="1.1" xmlns="http://www.w3.org/2000/svg" p-id="60630" width="48" height="48"><path d="M375.467 367.445a30.89 30.89 0 1 1-58.027 3.926c4.267-11.606 12.97-13.312 22.016-19.968 18.944-0.512 29.867 4.266 36.01 16.042z m192 138.07l-10.923 3.072c-6.485 3.925-19.285 19.626-10.923 31.061a25.941 25.941 0 0 0 34.134 15.019c7.509-3.072 9.898-9.558 15.018-15.019 1.536-21.163-6.656-33.28-27.306-34.133zM1024 512A512 512 0 1 1 512 0a512 512 0 0 1 512 512zM438.443 627.37a140.97 140.97 0 0 0-4.95-20.991 138.923 138.923 0 0 1 2.048-57.003c18.091-65.024 64.171-99.499 124.928-122.027a185.173 185.173 0 0 1 81.067-10.922 129.707 129.707 0 0 0-31.915-70.998 221.867 221.867 0 0 0-117.93-76.97c-10.07-3.243-19.115-2.39-30.038-4.95a217.259 217.259 0 0 0-75.946-1.024 359.424 359.424 0 0 0-53.931 13.995 205.653 205.653 0 0 0-119.467 112.981 165.547 165.547 0 0 0-3.925 95.915 181.248 181.248 0 0 0 82.944 104.96 223.744 223.744 0 0 1-11.947 37.035 102.4 102.4 0 0 1-9.045 27.989v2.048c19.115-9.216 38.059-18.09 57.003-27.99a136.533 136.533 0 0 1 20.992-11.946 84.31 84.31 0 0 1 25.941 5.973 285.355 285.355 0 0 0 64.17 3.926z m360.96-114.005c-34.134-56.32-92.843-85.333-186.027-83.968-4.096 2.56-10.752 0-16.043 2.048-8.192 2.048-17.066 3.243-25.941 5.974a237.056 237.056 0 0 0-69.973 37.034A141.995 141.995 0 0 0 458.41 637.44a173.91 173.91 0 0 0 73.045 76.97 237.056 237.056 0 0 0 64 22.017l13.995 1.024a106.837 106.837 0 0 0 39.082 2.048c11.435-2.39 23.894-1.878 34.987-4.95 3.243-0.853 9.899-4.949 13.995-3.925a102.4 102.4 0 0 1 18.944 10.923 266.752 266.752 0 0 1 46.08 23.04h1.024a140.63 140.63 0 0 0-8.022-24.064 119.467 119.467 0 0 0-9.045-29.014c1.024-5.973 24.576-21.845 30.037-25.941a160.768 160.768 0 0 0 39.083-62.976 135.168 135.168 0 0 0-16.213-109.227zM510.464 409.6c32.939-11.947 26.795-59.221-17.067-58.027-9.728 6.486-19.456 8.534-23.04 20.992a31.573 31.573 0 0 0 40.107 37.035z m186.027 96.085c-6.144 3.755-13.824 3.414-17.92 9.046a27.99 27.99 0 0 0 4.096 36.693c22.016 14.677 41.813-3.413 40.96-27.99-8.192-9.727-8.192-17.407-27.136-17.92z" fill="#07BD13" p-id="60631"></path></svg>