<svg t="1636255095191" class="icon" viewBox="0 0 1024 1024" version="1.1" xmlns="http://www.w3.org/2000/svg" p-id="6598" width="200" height="200"><path d="M896 626.592a16 16 0 0 0-7.68-13.664l-172.448-105.088a16 16 0 0 0-20.704 3.52l-76 92.608-1.024 1.152a16 16 0 0 1-22.624 0.032l-252.832-252.064a16.032 16.032 0 0 0-22.08-0.512l-187.36 170.656a15.936 15.936 0 0 0-5.248 11.84V800h768v-173.408z" p-id="6599" fill="#999999"></path><path d="M800 320m-64 0a64 64 0 1 0 128 0 64 64 0 1 0-128 0Z" p-id="6600" fill="#999999"></path><path d="M32 128v768h960V128H32z m896 704H96V192h832v640z" p-id="6601" ></path></svg>
