<svg t="1636775060281" class="icon" viewBox="0 0 1024 1024" version="1.1" xmlns="http://www.w3.org/2000/svg" p-id="14979" width="200" height="200"><path d="M887.653147 861.950254c0 53.44012-43.324738 96.762811-96.764857 96.762811L230.594377 958.713065c-53.44012 0-96.763834-43.322691-96.763834-96.762811L133.830543 162.05077c0-53.439096 43.323715-96.763834 96.763834-96.763834l560.294936 0c53.44012 0 96.764857 43.323715 96.764857 96.763834L887.65417 861.950254zM831.814398 162.05077c0-22.602787-18.322297-40.925085-40.925085-40.925085L230.594377 121.125685c-22.602787 0-40.925085 18.322297-40.925085 40.925085l0 699.898461c0 22.602787 18.322297 40.924061 40.925085 40.924061l560.294936 0c22.602787 0 40.925085-18.321274 40.925085-40.924061L831.814398 162.05077z" p-id="14980"></path><path d="M329.266677 944.754145c-7.715729 0-13.959943-6.244214-13.959943-13.960966L315.306734 93.206822c0-7.716752 6.244214-13.959943 13.959943-13.959943 7.702426 0 13.959943 6.244214 13.959943 13.959943l0 837.586356C343.22662 938.50993 336.96808 944.754145 329.266677 944.754145z" p-id="14981"></path><path d="M727.498564 874.955452 498.527662 874.955452c-7.716752 0-13.959943-6.244214-13.959943-13.960966 0-7.714705 6.244214-13.95892 13.959943-13.95892l228.970902 0c22.030759 0 48.477085-26.39209 48.477085-67.236334l0-44.442188c0-7.714705 6.244214-13.95892 13.960966-13.95892 7.715729 0 13.95892 6.244214 13.95892 13.95892l0 44.442188C803.894512 837.602729 766.487553 874.955452 727.498564 874.955452z" p-id="14982"></path><path d="M779.396561 678.818353c-3.774977 0-7.265474-1.404999-9.910721-4.049223-2.52245-2.52245-4.048199-6.148024-4.048199-9.911744 0-3.6399 1.52575-7.265474 4.048199-9.911744 5.166673-5.030573 14.518668-5.166673 19.672038 0 2.65855 2.64627 4.199649 6.271844 4.199649 9.911744 0 3.76372-1.541099 7.253194-4.049223 9.911744C786.649755 677.413354 783.023158 678.818353 779.396561 678.818353z" p-id="14983"></path><path d="M692.218036 378.425795c-2.058892 0-4.116761-0.449231-6.02625-1.376347l-77.732385-37.244252-77.733409 37.244252c-4.321422 2.098801-9.405207 1.785669-13.467733-0.763386-4.049223-2.563382-6.516414-7.020904-6.516414-11.819187L510.741845 93.206822c0-7.716752 6.244214-13.959943 13.959943-13.959943l167.516248 0c7.715729 0 13.95892 6.244214 13.95892 13.959943l0 271.25903c0 4.798283-2.466168 9.255805-6.515391 11.819187C697.399035 377.703341 694.808024 378.425795 692.218036 378.425795zM608.460424 310.37184c2.057869 0 4.130064 0.463558 6.025227 1.37737l63.772442 30.549783L678.258093 107.166765 538.661731 107.166765l0 235.133252 63.772442-30.549783C604.329337 310.836421 606.401532 310.37184 608.460424 310.37184z" p-id="14984"></path></svg>