<svg t="1636647477349" class="icon" viewBox="0 0 1024 1024" version="1.1" xmlns="http://www.w3.org/2000/svg" p-id="6772" width="200" height="200"><path d="M801.6 861.6H54.4c-23.2 0-42.4-19.2-42.4-42.4V255.2c0-23.2 19.2-42.4 42.4-42.4h408.8v32H54.4c-5.6 0-10.4 4.8-10.4 10.4v564c0 5.6 4.8 10.4 10.4 10.4h747.2c5.6 0 10.4-4.8 10.4-10.4V537.6h32v282.4c-0.8 22.4-19.2 41.6-42.4 41.6z" fill="#666666" p-id="6773"></path><path d="M1017.6 316L795.2 141.6v70.4s-340.8 28.8-529.6 343.2c0 0 135.2-142.4 529.6-135.2v70.4l222.4-174.4z" fill="#666666" p-id="6774"></path><path d="M461.6 229.6m-16 0a16 16 0 1 0 32 0 16 16 0 1 0-32 0Z" fill="#666666" p-id="6775"></path><path d="M827.2 537.6m-16 0a16 16 0 1 0 32 0 16 16 0 1 0-32 0Z" p-id="6776"></path></svg>