<svg t="1636774785201" class="icon" viewBox="0 0 1024 1024" version="1.1" xmlns="http://www.w3.org/2000/svg" p-id="12206" width="200" height="200"><path d="M856.078011 639.690194l102.189404 0L958.267415 384.311853l-102.189404 0c-0.560772 0-14.33959-21.947871-14.33959-22.448268l77.935-71.762417L751.082702 124.630509l-77.686337 79.429027c-11.222599-5.361101-34.353412-8.665357-34.353412-12.841469L639.042953 65.085344 383.662565 65.085344l0 126.132722c0 4.176113-15.150048 8.978489-26.373671 14.33959l-73.821309-77.873602L116.997156 296.214399l78.932724 65.650209c-5.361101 11.286044-9.165754 22.448268-13.343913 22.448268L64.43708 384.312876l0 255.378341 118.148887 0c-0.433882 0 14.34266 38.906102 14.34266 38.407752l-77.937047 79.742159 168.589696 169.4636 69.706595-77.435627c11.223622 5.362124 26.373671 10.662851 26.373671 14.839986l0 94.206592 255.379365 0 0-94.206592c0 0.435928 33.917484-14.402011 34.353412-14.402011l77.812203 77.937047 168.465876-168.529321-77.935-81.614809C847.099523 666.811902 851.899852 639.690194 856.078011 639.690194zM835.379597 759.712755l-84.296895 84.232426-69.518307-67.647703c-31.236422 20.698414-42.522466 35.788088-106.365516 43.518143l0 75.257008L447.506638 895.072629l0-75.257008c-63.844074-7.731078-67.148329-22.820752-98.385774-43.518143l-64.031339 67.647703-83.047438-84.232426 68.333318-73.573669c-20.575618-31.236422-34.916231-46.448892-42.646286-110.292965l-99.446943 0L128.282177 448.155926l99.446943 0c7.731078-63.844074 22.695908-63.09706 43.332924-94.334505l-67.772546-62.160735 84.293825-81.989339 67.711148 68.895113c31.172977-20.761859 66.462714-43.270503 104.495936-50.937113l-4.303003-98.697883 127.691217 0-4.304026 99.196233c38.033221 7.732102 73.323982 26.809599 104.495936 47.51006l67.711148-65.715701 84.296895 85.292572-67.772546 58.108442c20.635993 31.236422 35.599799 30.988782 43.331901 94.832855l83.48439 0 0 127.690194-83.48439 0c-7.732102 63.845097-22.695908 79.056544-43.331901 110.292965L835.379597 759.712755z" p-id="12207"></path><path d="M519.332501 337.423963c-105.804744 0-191.534268 85.730547-191.534268 191.536314 0 105.805768 85.729523 191.533244 191.534268 191.533244 105.805768 0 191.536314-85.727477 191.536314-191.533244C710.868815 423.154509 625.137245 337.423963 519.332501 337.423963zM519.332501 656.649448c-70.391187 0-127.688147-57.296961-127.688147-127.689171 0-70.39221 57.296961-127.689171 127.688147-127.689171 70.39221 0 127.689171 57.296961 127.689171 127.689171C647.021671 599.351464 589.724711 656.649448 519.332501 656.649448z" p-id="12208"></path></svg>