<svg t="1636784986955" class="icon" viewBox="0 0 1024 1024" version="1.1" xmlns="http://www.w3.org/2000/svg" p-id="11121" width="200" height="200"><path d="M512 313.6m-64 0a2 2 0 1 0 128 0 2 2 0 1 0-128 0Z" p-id="11122"></path><path d="M512 64C265.6 64 64 265.6 64 512s201.6 448 448 448 448-201.6 448-448S758.4 64 512 64zM512 896C300.8 896 128 723.2 128 512S300.8 128 512 128s384 172.8 384 384S723.2 896 512 896z" p-id="11123"></path><path d="M608 704l-64 0 0-224c0-19.2-12.8-32-32-32l-64 0c-19.2 0-32 12.8-32 32s12.8 32 32 32l32 0 0 192-64 0c-19.2 0-32 12.8-32 32s12.8 32 32 32l192 0c19.2 0 32-12.8 32-32S627.2 704 608 704z" p-id="11124"></path></svg>