<svg t="1636258888565" class="icon" viewBox="0 0 1024 1024" version="1.1" xmlns="http://www.w3.org/2000/svg" p-id="6972" width="200" height="200"><path d="M320.01 320.01h255.987c17.672 0 31.998 14.326 31.998 31.998s-14.326 31.999-31.998 31.999H320.009c-17.672 0-31.998-14.326-31.998-31.999s14.326-31.999 31.998-31.999z m0-127.995h127.993c17.673 0 32 14.327 32 31.999s-14.327 31.999-32 31.999H320.01c-17.672 0-31.998-14.326-31.998-31.999s14.326-31.999 31.998-31.999z m-95.996 321.776c99.273 38.237 220.398 62.206 287.986 62.206s188.713-23.97 287.986-62.206V160.016c0-17.672-14.326-31.998-31.999-31.998H256.012c-17.673 0-31.999 14.326-31.999 31.998v353.775z m657.828-38.263c9.482-10.23 14.14-19.69 14.14-27.525 0-11.751-10.476-27.16-32-43.338v80.657a434.42 434.42 0 0 0 17.86-9.794z m-817.82-27.526c0-44.844 35.874-86.097 95.994-118.776v-169.21c0-53.016 42.98-95.995 95.996-95.995h511.975c53.017 0 95.996 42.979 95.996 95.995v169.21c60.12 32.68 95.995 73.932 95.995 118.776v415.98c0 53.017-42.979 95.996-95.995 95.996H160.016c-53.016 0-95.995-42.979-95.995-95.995v-415.98z m78.135 27.526a434.537 434.537 0 0 0 17.86 9.793v-80.657c-21.524 16.178-32 31.588-32 43.338 0.002 7.836 4.658 17.296 14.14 27.526z" p-id="6973"></path></svg>
