<svg t="1636867479667" class="icon" viewBox="0 0 1024 1024" version="1.1" xmlns="http://www.w3.org/2000/svg" p-id="15865" width="200" height="200"><path d="M57.856 351.744h466.432c24.576 0 44.544-19.456 44.544-43.52s-19.968-43.52-44.544-43.52h-466.432c-24.576 0-44.544 19.456-44.544 43.52s19.968 43.52 44.544 43.52z m0-233.984h466.432c24.576 0 44.544-19.456 44.544-43.52s-19.968-43.52-44.544-43.52h-466.432c-24.576 0-44.544 19.456-44.544 43.52s19.968 43.52 44.544 43.52z m276.992 424.448c0-24.064-19.968-43.52-44.544-43.52h-232.448c-24.576 0-44.544 19.456-44.544 43.52s19.968 43.52 44.544 43.52h232.448c25.088 0 44.544-19.456 44.544-43.52z" p-id="15866" ></path><path d="M730.112 30.208H728.576c-11.264 0-21.504 5.12-29.184 12.8 0 0-0.512 0-0.512 0.512-0.512 0.512-1.024 1.536-1.536 2.56-6.656 8.192-11.264 18.432-11.264 29.696V634.88c-43.52-30.72-99.328-49.152-160.768-49.152-137.216 0-248.832 92.16-248.832 204.8s111.616 204.8 248.832 204.8c130.048 0 237.056-82.944 247.296-188.416 0-1.536 0.512-2.56 0.512-3.584v-7.68c0-1.536 0.512-3.584 0.512-5.12 0-1.536-0.512-3.584-0.512-5.12V128c78.848 20.48 150.528 96.256 150.528 236.032 0 25.6 18.432 46.08 41.984 46.08 23.04 0 41.984-20.48 41.984-46.08 0.512-218.112-138.752-332.8-277.504-333.824z" p-id="15867" ></path></svg>